<svg xmlns="http://www.w3.org/2000/svg" version="1.1" xmlns:xlink="http://www.w3.org/1999/xlink" xmlns:svgjs="http://svgjs.dev/svgjs" width="1440" height="560" preserveAspectRatio="none" viewBox="0 0 1440 560"><g mask="url(&quot;#SvgjsMask1001&quot;)" fill="none"><rect width="1440" height="560" x="0" y="0" fill="rgba(38, 43, 127, 1)"></rect><path d="M0,459.477C107.347,467.117,222.697,545.5,314.847,489.912C406.652,434.532,410.614,302.717,433.5,197.973C452.427,111.352,451.232,24.646,435.576,-62.626C420.388,-147.293,402.322,-234.828,344.445,-298.464C287.176,-361.431,201.675,-384.739,120.204,-409.377C38.122,-434.199,-44.432,-450.556,-129.743,-441.863C-229.049,-431.745,-336.305,-422.574,-410.09,-355.345C-486.555,-285.674,-518.936,-179.083,-530.915,-76.334C-542.697,24.725,-519.843,125.556,-476.91,217.797C-434.198,309.563,-377.595,401.304,-287.307,447.058C-200.034,491.285,-97.593,452.532,0,459.477" fill="#1e2266"></path><path d="M1440 1060.5430000000001C1536.404 1060 1631.788 1036.7440000000001 1713.084 984.927 1794.568 932.991 1858.753 857.453 1897.5059999999999 768.936 1935.884 681.277 1948.593 583.415 1929.961 489.554 1911.885 398.495 1859.785 318.881 1794.971 252.416 1732.781 188.642 1653.761 147.954 1569.286 119.69400000000002 1482.151 90.54399999999998 1390.116 64.14299999999997 1301.18 87.22399999999999 1210.998 110.62799999999999 1146.703 183.231 1078.771 246.99400000000003 1003.2719999999999 317.86 900.928 377.93600000000004 882.84 479.892 864.693 582.182 936.072 676.28 986.4970000000001 767.108 1033.392 851.577 1083.819 935.528 1164.933 988.012 1246.19 1040.589 1343.219 1061.088 1440 1060.5430000000001" fill="#2e3498"></path></g><defs><mask id="SvgjsMask1001"><rect width="1440" height="560" fill="#ffffff"></rect></mask></defs></svg>